<?xml version="1.0" encoding="UTF-8"?>
<svg width="520px" height="524px" viewBox="0 0 520 524" version="1.1" xmlns="http://www.w3.org/2000/svg" xmlns:xlink="http://www.w3.org/1999/xlink">
    <title>Group 31</title>
    <defs>
        <path d="M0,0 L510,0 C515.522847,-1.01453063e-15 520,4.4771525 520,10 L520,514 C520,519.522847 515.522847,524 510,524 L0,524 L0,524 L0,0 Z" id="path-1"></path>
        <filter x="-15.5%" y="-15.5%" width="130.9%" height="130.9%" filterUnits="objectBoundingBox" id="filter-3">
            <feOffset dx="0" dy="23" in="SourceAlpha" result="shadowOffsetOuter1"></feOffset>
            <feGaussianBlur stdDeviation="17.5" in="shadowOffsetOuter1" result="shadowBlurOuter1"></feGaussianBlur>
            <feColorMatrix values="0 0 0 0 0   0 0 0 0 0   0 0 0 0 0  0 0 0 0.203835227 0" type="matrix" in="shadowBlurOuter1" result="shadowMatrixOuter1"></feColorMatrix>
            <feMerge>
                <feMergeNode in="shadowMatrixOuter1"></feMergeNode>
                <feMergeNode in="SourceGraphic"></feMergeNode>
            </feMerge>
        </filter>
        <polygon id="path-4" points="0 374 434.111 374 434.111 0.459 0 0.459"></polygon>
    </defs>
    <g id="Login-and-Forgot---Password-" stroke="none" stroke-width="1" fill="none" fill-rule="evenodd">
        <g id="07_Existing-Investor-Login_forgot_email_id" transform="translate(-695.000000, -131.000000)">
            <g id="Download-App" transform="translate(226.000000, 132.000000)">
                <g id="Group-31" transform="translate(469.000000, -1.000000)">
                    <mask id="mask-2" fill="white">
                        <use xlink:href="#path-1"></use>
                    </mask>
                    <use id="Mask" fill="#97144D" xlink:href="#path-1"></use>
                    <g id="Group-13" filter="url(#filter-3)" opacity="0.112374442" mask="url(#mask-2)">
                        <g transform="translate(340.000000, 418.000000) rotate(115.000000) translate(-340.000000, -418.000000) translate(-22.000000, 56.000000)">
                            <circle id="Oval" stroke="#F84089" stroke-width="192.78" fill="none" cx="361.8" cy="361.8" r="265.41"></circle>
                            <path d="M338.399462,3.28950758e-05 L338.400284,193.680674 C256.190342,204.614077 192.76393,275.042619 192.76393,360.294718 C192.76393,403.125765 208.773415,442.215192 235.131126,471.898101 L98.7154947,608.401491 C37.5264302,543.718108 5.25801624e-13,456.391614 5.25801624e-13,360.294718 C5.25801624e-13,168.441959 149.57349,11.5464201 338.399462,3.28950758e-05 Z" id="Combined-Shape" stroke="none" fill="#E3236D" fill-rule="nonzero"></path>
                        </g>
                    </g>
                    <g id="Group-76" mask="url(#mask-2)">
                        <g transform="translate(24.000000, 56.000000)" id="Group-75">
                            <g transform="translate(0.000000, 0.541000)">
                                <path d="M218.287,333.2487 C141.426,333.2487 79.118,329.5357 79.118,324.9567 C79.118,320.3767 141.426,316.6637 218.287,316.6637 C295.148,316.6637 357.457,320.3767 357.457,324.9567 C357.457,329.5357 295.148,333.2487 218.287,333.2487 Z" id="Fill-4" fill="#3E1D3E"></path>
                                <polygon id="Fill-6" fill="#FFFFFF" points="103.9565 224.5827 112.3575 323.9367 169.7065 323.9367 169.7065 224.5827"></polygon>
                                <path d="M179.9336,231.2682 L179.9336,316.3652 L191.6436,316.3652 C191.6436,316.3652 199.4516,323.3912 202.9646,324.1712 C206.4776,324.9532 310.7016,324.1712 310.7016,324.1712 C310.7016,324.1712 326.7046,319.0972 325.5346,305.8262 C325.5956,299.5802 320.8506,294.1152 320.8506,294.1152 C320.8506,294.1152 333.3416,292.1632 334.1216,279.2822 C334.1216,272.6462 328.6576,267.1812 328.6576,267.1812 C328.6576,267.1812 341.9286,259.7642 341.9286,250.3962 C341.9286,241.0272 336.4636,237.5142 336.4636,237.5142 C336.4636,237.5142 350.5166,230.8782 350.5166,219.1672 C350.5166,207.4572 338.4156,207.8472 338.4156,207.8472 L259.1746,207.8472 L265.2256,175.4482 C265.2256,175.4482 269.7136,162.9572 265.2256,150.4662 C260.7366,137.9752 256.4426,123.5322 248.2456,121.9702 C240.0476,120.4092 235.7536,122.3612 235.3636,133.6812 C234.9726,145.0012 234.9726,162.1762 234.9726,162.1762 C234.9726,162.1762 202.9646,226.9742 179.9336,231.2682" id="Fill-8" fill="#FFFFFF"></path>
                                <path d="M126.9123,139.6174 C118.1623,144.4534 119.0843,156.8874 120.4653,166.3274 C121.8463,175.7684 108.3763,176.3444 111.9453,186.0154 C115.5143,195.6864 130.3573,203.2844 147.6893,196.9524 C165.0213,190.6204 163.9853,180.0284 158.8033,174.8474 C153.6233,169.6664 151.6653,163.8204 152.1263,153.2164 C152.5873,142.6114 142.5703,138.4664 142.5703,138.4664 C142.5703,138.4664 136.9253,134.0844 126.9123,139.6174 Z" id="Fill-10" fill="#222222"></path>
                                <path d="M125.5225,151.1808 C125.5225,151.1808 124.8305,159.6688 128.4075,165.1988 C131.9855,170.7278 142.2855,170.8358 146.0805,161.5118 C147.7515,154.4698 147.6865,152.2758 147.6865,152.2758 C147.6865,152.2758 142.2645,151.0458 140.8145,144.6078 C140.8145,144.6078 136.7165,153.2158 125.5225,151.1808" id="Fill-12" fill="#F9D4D1"></path>
                                <path d="M125.5215,154.2482 C125.5215,154.2482 124.9385,153.1642 123.6375,153.2182 C122.3365,153.2722 120.8005,157.0052 126.2035,159.1772 L125.5215,154.2482 Z" id="Fill-14" fill="#F9D4D1"></path>
                                <path d="M147.3018,154.2482 C147.3018,154.2482 147.8848,153.1642 149.1858,153.2182 C150.4878,153.2722 152.0228,157.0052 146.6198,159.1772 L147.3018,154.2482 Z" id="Fill-16" fill="#F9D4D1"></path>
                                <path d="M132.6172,172.5163 C132.6172,172.5163 128.2942,172.4303 123.4592,173.4663 C118.6232,174.5023 112.4732,187.2453 112.4732,187.2453 C112.4732,187.2453 114.3052,191.0813 120.8682,191.9443 L122.3912,189.3543 L122.3912,203.1693 C122.3912,203.1693 137.7922,212.1503 152.6442,203.1693 L152.6442,188.1453 L154.4392,192.1833 C154.4392,192.1833 159.6382,192.2463 161.9712,188.7793 C161.9712,188.7793 158.0552,178.1863 153.3922,175.2503 C151.2002,173.8703 145.7362,172.1693 140.8142,172.5143 C135.8932,172.8603 132.6172,172.5163 132.6172,172.5163" id="Fill-18" fill="#FF8DA4"></path>
                                <path d="M132.6172,168.4415 L132.6172,172.5165 C132.6172,172.5165 133.1732,175.8835 136.6052,176.2295 C140.0372,176.5745 140.8142,172.9475 140.8142,172.9475 L140.8142,167.7265 C140.8142,167.7265 137.0132,169.9485 132.6172,168.4415" id="Fill-20" fill="#F9D4D1"></path>
                                <path d="M113.6714,188.7794 L109.4134,200.6364 L117.8174,200.6364 L120.8684,191.9444 C120.8684,191.9444 115.9644,191.1114 113.6714,188.7794" id="Fill-22" fill="#F9D4D1"></path>
                                <mask id="mask-5" fill="white">
                                    <use xlink:href="#path-4"></use>
                                </mask>
                                <g id="Clip-25"></g>
                                <polygon id="Fill-24" fill="#222222" mask="url(#mask-5)" points="119.659 211.344 154.774 211.344 154.774 192.002 119.659 192.002"></polygon>
                                <path d="M161.9712,188.7794 L166.2292,200.6364 L157.8252,200.6364 L154.7742,191.9444 C154.7742,191.9444 160.2452,191.5434 161.9712,188.7794" id="Fill-26" fill="#F9D4D1" mask="url(#mask-5)"></path>
                                <path d="M151.5508,219.403 C151.5508,219.403 135.6628,207.775 126.1068,204.09 C116.5508,200.406 111.2548,198.219 107.4558,200.637 C103.6558,203.054 103.7718,212.381 120.1198,218.252 C136.4678,224.124 149.7658,224.008168 149.7658,224.008168 L151.5508,219.403 Z" id="Fill-27" fill="#3F3D56" mask="url(#mask-5)"></path>
                                <path d="M167.4385,219.6911 L151.5505,219.4031 L149.7665,224.0081 C149.7665,224.0081 161.0485,224.8141 164.5025,223.4321 C167.9565,222.0511 167.4385,219.6911 167.4385,219.6911" id="Fill-28" fill="#222222" mask="url(#mask-5)"></path>
                                <path d="M122.1118,219.403 C122.1118,219.403 137.9998,207.775 147.5558,204.09 C157.1118,200.406 162.4078,198.219 166.2068,200.637 C170.0068,203.054 169.8908,212.381 153.5428,218.252 C137.1938,224.124 123.8968,224.008168 123.8968,224.008168 L122.1118,219.403 Z" id="Fill-29" fill="#3F3D56" mask="url(#mask-5)"></path>
                                <path d="M122.1121,219.4031 L123.8961,224.0081 C123.8961,224.0081 112.6141,224.8141 109.1601,223.4321 C105.7051,222.0511 106.2241,219.6911 106.2241,219.6911 L122.1121,219.4031 Z" id="Fill-30" fill="#222222" mask="url(#mask-5)"></path>
                                <path d="M292.2812,160.2809 L293.5592,156.8109 C293.5592,156.8109 307.6222,162.2899 307.2572,143.8439 C307.2572,143.8439 304.3352,146.4009 295.7512,144.9399 C295.7512,144.9399 294.6552,141.6519 292.2812,141.1039 C289.9062,140.5559 287.7152,144.7569 290.6362,148.9579 L287.5322,156.8109 C287.5322,156.8109 291.0032,158.0899 292.2812,160.2809" id="Fill-31" fill="#F9D4D1" mask="url(#mask-5)"></path>
                                <path d="M274.5654,194.6168 C274.5654,194.6168 273.6524,171.0568 279.6784,163.9338 C285.7064,156.8108 287.5324,156.8108 287.5324,156.8108 C287.5324,156.8108 301.9674,159.7328 297.3984,192.2428 C297.3984,192.2428 290.4554,196.9918 274.5654,194.6168" id="Fill-32" fill="#FF8DA4" mask="url(#mask-5)"></path>
                                <path d="M289.7236,164.6901 C289.7236,164.6901 284.6106,162.3151 282.7846,166.6991 C280.9566,171.0821 288.0796,186.9721 291.0026,188.9811 C293.9246,190.9901 307.2646,193.3641 307.2646,193.3641 L313.2846,193.3641 L313.2846,190.0771 L297.3986,183.3191 C297.3986,183.3191 294.8376,172.5441 289.7236,164.6901" id="Fill-33" fill="#FF7F99" mask="url(#mask-5)"></path>
                                <path d="M274.5654,194.6168 C274.5654,194.6168 273.2874,203.9308 278.4004,206.6708 C283.5144,209.4108 309.2664,207.5848 309.2664,207.5848 L302.1434,237.5368 L306.3434,237.5368 L324.6074,195.2818 L297.3984,192.2428 C297.3984,192.2428 289.9064,196.9918 274.5654,194.6168" id="Fill-34" fill="#3F3D56" mask="url(#mask-5)"></path>
                                <polygon id="Fill-35" fill="#3F3D56" mask="url(#mask-5)" points="330.2695 237.5368 320.6825 204.3618 324.6075 195.2818 330.2695 195.2818 335.0175 237.5368"></polygon>
                                <polygon id="Fill-36" fill="#222222" mask="url(#mask-5)" points="302.1436 237.5368 300.8656 241.9198 311.2756 247.3988 306.3436 237.5368"></polygon>
                                <polygon id="Fill-37" fill="#222222" mask="url(#mask-5)" points="330.2324 237.5368 328.9544 241.9198 339.3654 247.3988 334.4334 237.5368"></polygon>
                                <path d="M313.2842,190.4874 C313.2842,190.4874 315.4532,190.0084 317.2332,189.5974 C319.0142,189.1864 324.9082,192.8034 321.9602,193.1814 C321.0692,193.2954 313.2842,193.3634 313.2842,193.3634 L313.2842,190.4874 Z" id="Fill-38" fill="#F9D4D1" mask="url(#mask-5)"></path>
                                <path d="M311.6406,139.4606 C311.6406,139.4606 313.8886,137.8086 313.2846,134.3466 C312.7826,131.4696 309.8146,131.3336 309.8146,131.3336 C309.8146,131.3336 309.5186,126.7386 305.2476,126.3106 C302.0636,125.9906 300.6826,127.8626 300.6826,127.8626 C300.6826,127.8626 297.6686,124.3016 293.3766,125.0316 C289.0846,125.7626 288.5366,128.6846 288.5366,128.6846 C288.5366,128.6846 283.1496,127.8626 281.4136,131.6986 C279.6786,135.5336 281.4136,138.7306 281.4136,138.7306 C281.4136,138.7306 279.4056,141.3776 279.7706,144.3006 C280.1356,147.2226 283.2406,149.4146 283.2406,149.4146 C283.2406,149.4146 283.6416,154.3466 288.6006,154.1086 L290.6366,148.9576 C287.7146,144.7566 289.9066,140.5566 292.2816,141.1046 C294.6556,141.6516 295.7506,144.9396 295.7506,144.9396 C304.3346,146.4006 307.2566,143.8436 307.2566,143.8436 C307.2786,144.9326 307.2456,145.9316 307.1726,146.8596 C307.1736,146.8596 307.1766,146.8576 307.1766,146.8576 C307.1766,146.8576 310.6356,147.5876 312.0056,144.3006 C313.3756,141.0126 311.6406,139.4606 311.6406,139.4606" id="Fill-39" fill="#222222" mask="url(#mask-5)"></path>
                                <polygon id="Fill-40" fill="#222222" mask="url(#mask-5)" points="301.686 195.282 342.78 195.282 342.78 193.364 301.686 193.364"></polygon>
                                <polygon id="Fill-41" fill="#222222" mask="url(#mask-5)" points="320.6826 193.5465 324.6076 172.2695 346.2496 172.2695 342.7806 193.3635"></polygon>
                                <path d="M204.9082,368.4469 C204.9082,371.5129 171.6112,373.9999 130.5362,373.9999 C89.4622,373.9999 56.1652,371.5129 56.1652,368.4469 C56.1652,365.3799 89.4622,362.8939 130.5362,362.8939 C171.6112,362.8939 204.9082,365.3799 204.9082,368.4469" id="Fill-42" fill="#3E1D3E" mask="url(#mask-5)"></path>
                                <path d="M124.8369,348.2594 C124.8369,348.2594 144.4199,334.2794 152.7799,337.4844 C161.1399,340.6894 165.0749,344.7894 166.5979,348.2594 C168.1219,351.7304 169.2179,362.3224 142.9179,367.0724 C116.6179,371.8204 112.9649,368.8984 112.9649,368.8984 C112.9649,368.8984 112.6699,355.5244 124.8369,348.2594" id="Fill-43" fill="#FF8DA4" mask="url(#mask-5)"></path>
                                <path d="M156.6309,333.2487 L158.2589,331.4577 C158.2589,331.4577 157.5289,328.3527 157.7119,325.7957 C157.8939,323.2387 159.1729,320.6817 161.1819,321.5947 C163.1909,322.5087 163.7379,324.5177 163.1909,327.0737 C163.1909,327.0737 175.9749,329.8127 179.4449,324.5177 C179.4449,324.5177 180.1509,326.5807 180.3599,329.2657 L180.3599,329.2657 C180.3599,329.2657 183.2809,321.7767 179.4449,316.4807 C175.6099,311.1847 165.9299,308.8107 158.4419,313.5587 C150.9539,318.3077 151.7139,328.8307 156.6309,333.2487" id="Fill-44" fill="#222222" mask="url(#mask-5)"></path>
                                <path d="M179.4453,324.5172 C179.4453,324.5172 181.6373,330.9092 179.4453,335.8402 C177.2543,340.7722 171.2263,343.3292 161.5473,339.4942 C161.5473,339.4942 160.8163,341.3202 160.4513,343.6942 C160.0863,346.0682 152.5973,346.2502 152.7803,337.4842 L158.2593,331.4572 C158.2593,331.4572 157.5283,328.3522 157.7113,325.7952 C157.8943,323.2392 159.1723,320.6812 161.1813,321.5942 C163.1903,322.5082 163.7383,324.5172 163.1903,327.0742 C163.1903,327.0742 175.9753,329.8132 179.4453,324.5172" id="Fill-45" fill="#F9D4D1" mask="url(#mask-5)"></path>
                                <path d="M169.583,310.7281 C169.583,314.0061 166.925,316.6641 163.647,316.6641 C160.369,316.6641 157.711,314.0061 157.711,310.7281 C157.711,307.4501 160.369,304.7921 163.647,304.7921 C166.925,304.7921 169.583,307.4501 169.583,310.7281" id="Fill-46" fill="#222222" mask="url(#mask-5)"></path>
                                <path d="M140.1099,345.0914 C140.1099,345.0914 143.7339,349.2644 152.7769,350.2234 C152.7769,350.2234 152.5059,345.4294 150.4519,342.0044 C148.3969,338.5794 142.7809,339.4124 140.1099,345.0914" id="Fill-47" fill="#FF7F99" mask="url(#mask-5)"></path>
                                <path d="M166.5981,348.2594 C166.5981,348.2594 168.9441,352.5514 168.9441,354.6064 L168.9441,356.6604 L165.5661,356.6604 C165.5661,356.6604 167.8141,352.5974 166.5981,348.2594" id="Fill-48" fill="#FF7F99" mask="url(#mask-5)"></path>
                                <path d="M140.8848,345.8131 C140.8848,345.8131 142.7808,364.4691 147.0278,368.9891 C149.2188,370.6321 173.1898,369.7881 173.1898,369.7881 L173.1898,365.2911 L154.2868,361.3181 L151.9538,350.1251 C151.9538,350.1251 145.4268,349.2111 140.8848,345.8131" id="Fill-49" fill="#F9D4D1" mask="url(#mask-5)"></path>
                                <polygon id="Fill-50" fill="#222222" mask="url(#mask-5)" points="177.4678 363.4987 186.6918 353.3967 193.7878 353.3967 185.6278 363.4987"></polygon>
                                <polygon id="Fill-51" fill="#F9D4D1" mask="url(#mask-5)" points="168.2588 356.6608 168.9438 361.8658 187.9838 366.2498 187.9838 369.1268 161.0678 369.1268 159.7118 361.6858 165.5658 356.6608"></polygon>
                                <path d="M173.1899,365.9752 C173.1899,365.9752 175.9299,362.9622 178.2579,362.1402 C180.5869,361.3182 181.4239,362.8942 181.4239,362.8942 C181.4239,362.8942 185.5179,359.1262 186.8879,359.2632 C188.2579,359.4012 195.1069,369.2152 173.1899,369.7882 L173.1899,365.9752 Z" id="Fill-52" fill="#F9D4D1" mask="url(#mask-5)"></path>
                                <path d="M187.9834,366.7975 C187.9834,366.7975 191.5454,364.9205 193.7364,364.5245 C195.9284,364.1265 200.3114,368.0295 199.4894,369.1265 L187.9834,369.1265 L187.9834,366.7975 Z" id="Fill-53" fill="#F9D4D1" mask="url(#mask-5)"></path>
                                <path d="M112.9653,368.8981 L65.6623,368.8981 L51.7813,321.4061 L56.1653,320.3161 L74.2463,351.3651 L109.8603,350.2231 C109.8603,350.2231 118.5763,346.0901 123.8073,348.9101 C123.8073,348.9101 113.8753,354.6971 112.9653,368.8981" id="Fill-54" fill="#3F3D56" mask="url(#mask-5)"></path>
                                <polygon id="Fill-55" fill="#323047" mask="url(#mask-5)" points="91.0488 315.2028 71.0128 345.8128 74.2458 351.3648 85.2108 351.0138 95.4318 315.2028"></polygon>
                                <polygon id="Fill-56" fill="#222222" mask="url(#mask-5)" points="56.165 320.316 54.339 315.203 39.728 316.664 51.782 321.406"></polygon>
                                <polygon id="Fill-57" fill="#222222" mask="url(#mask-5)" points="95.4321 315.2028 96.3451 309.5408 83.9971 304.2508 91.0491 315.2028"></polygon>
                                <path d="M78.2344,154.1168 C78.2344,156.1108 76.6184,157.7278 74.6244,157.7278 C72.6304,157.7278 71.0134,156.1108 71.0134,154.1168 C71.0134,152.1228 72.6304,150.5068 74.6244,150.5068 C76.6184,150.5068 78.2344,152.1228 78.2344,154.1168 Z" id="Stroke-58" stroke="#F00062" mask="url(#mask-5)"></path>
                                <path d="M367,282.8785 C367,284.8725 365.384,286.4885 363.39,286.4885 C361.396,286.4885 359.778,284.8725 359.778,282.8785 C359.778,280.8845 361.396,279.2675 363.39,279.2675 C365.384,279.2675 367,280.8845 367,282.8785 Z" id="Stroke-59" stroke="#F00062" mask="url(#mask-5)"></path>
                                <path d="M29.1108,258.3785 C29.1108,260.3725 27.4938,261.9885 25.4998,261.9885 C23.5058,261.9885 21.8888,260.3725 21.8888,258.3785 C21.8888,256.3845 23.5058,254.7675 25.4998,254.7675 C27.4938,254.7675 29.1108,256.3845 29.1108,258.3785 Z" id="Stroke-60" stroke="#F00062" mask="url(#mask-5)"></path>
                                <path d="M196.4233,81.8781 C196.4233,83.8721 194.8073,85.4891 192.8133,85.4891 C190.8193,85.4891 189.2023,83.8721 189.2023,81.8781 C189.2023,79.8841 190.8193,78.2681 192.8133,78.2681 C194.8073,78.2681 196.4233,79.8841 196.4233,81.8781 Z" id="Stroke-61" stroke="#F00062" mask="url(#mask-5)"></path>
                                <path d="M103.5664,45.8781 C103.5664,47.8721 101.9504,49.4891 99.9564,49.4891 C97.9624,49.4891 96.3454,47.8721 96.3454,45.8781 C96.3454,43.8841 97.9624,42.2681 99.9564,42.2681 C101.9504,42.2681 103.5664,43.8841 103.5664,45.8781 Z" id="Stroke-62" stroke="#F00062" mask="url(#mask-5)"></path>
                                <path d="M391.4619,74.6569 C391.4619,76.6509 389.8459,78.2679 387.8519,78.2679 C385.8579,78.2679 384.2399,76.6509 384.2399,74.6569 C384.2399,72.6629 385.8579,71.0469 387.8519,71.0469 C389.8459,71.0469 391.4619,72.6629 391.4619,74.6569 Z" id="Stroke-63" stroke="#F00062" mask="url(#mask-5)"></path>
                                <path d="M433.6104,167.7262 C433.6104,169.7202 431.9944,171.3362 430.0004,171.3362 C428.0064,171.3362 426.3894,169.7202 426.3894,167.7262 C426.3894,165.7322 428.0064,164.1152 430.0004,164.1152 C431.9944,164.1152 433.6104,165.7322 433.6104,167.7262 Z" id="Stroke-64" stroke="#F00062" mask="url(#mask-5)"></path>
                                <line x1="108" y1="94.0011" x2="108" y2="104.9891" id="Stroke-65" stroke="#F00062" mask="url(#mask-5)"></line>
                                <line x1="102.5059" y1="99.4948" x2="113.4939" y2="99.4948" id="Stroke-66" stroke="#F00062" mask="url(#mask-5)"></line>
                                <line x1="426.3896" y1="273.774" x2="426.3896" y2="284.761" id="Stroke-67" stroke="#F00062" mask="url(#mask-5)"></line>
                                <line x1="420.8955" y1="279.2672" x2="431.8825" y2="279.2672" id="Stroke-68" stroke="#F00062" mask="url(#mask-5)"></line>
                                <line x1="378.7471" y1="154.7872" x2="378.7471" y2="165.7752" id="Stroke-69" stroke="#F00062" mask="url(#mask-5)"></line>
                                <line x1="373.2529" y1="160.2809" x2="384.2399" y2="160.2809" id="Stroke-70" stroke="#F00062" mask="url(#mask-5)"></line>
                                <line x1="307.2646" y1="65.5524" x2="307.2646" y2="76.5404" id="Stroke-71" stroke="#F00062" mask="url(#mask-5)"></line>
                                <line x1="301.7705" y1="71.0465" x2="312.7575" y2="71.0465" id="Stroke-72" stroke="#F00062" mask="url(#mask-5)"></line>
                                <line x1="5.4941" y1="161.36" x2="5.4941" y2="172.348" id="Stroke-73" stroke="#F00062" mask="url(#mask-5)"></line>
                                <line x1="0" y1="166.8541" x2="10.988" y2="166.8541" id="Stroke-74" stroke="#F00062" mask="url(#mask-5)"></line>
                            </g>
                        </g>
                    </g>
                </g>
            </g>
        </g>
    </g>
</svg>